# xmcd
#
# Track frame offsets: 
#        150
#        11231
#        26293
#        47078
#        74241
#        96033
#        119305
#        141212
#        160565
#        191907
#        214149
#
# Disc length: 3396 seconds
#
# Revision: 0
# Processed by: cddbd v1.5.2PL0 Copyright (c) Steve Scherf et al.
# Submitted via: ExactAudioCopy v1.3
#
DISCID=9d0d420b
DTITLE=The Carl Verheyen Band - Rumor Mill
DYEAR=2005
DGENRE=Blues Rock
TTITLE0=Wildflower #2
TTITLE1=Henry's Farm
TTITLE2=Chinatown
TTITLE3=Silence Is Golden
TTITLE4=Misunderstood
TTITLE5=Nordenham
TTITLE6=Two Trains Running
TTITLE7=Lone Star
TTITLE8=Holly House
TTITLE9=Passing Through
TTITLE10=Slang Justice
EXTD=
EXTT0=
EXTT1=
EXTT2=
EXTT3=
EXTT4=
EXTT5=
EXTT6=
EXTT7=
EXTT8=
EXTT9=
EXTT10=
PLAYORDER=
